<svg width="60" height="60" viewBox="0 0 60 60" fill="none" xmlns="http://www.w3.org/2000/svg">
<path d="M7.5 22.5C7.5 21.1739 8.02678 19.9021 8.96447 18.9645C9.90215 18.0268 11.1739 17.5 12.5 17.5H14.825C15.648 17.5001 16.4582 17.2971 17.1839 16.909C17.9096 16.5208 18.5283 15.9596 18.985 15.275L21.015 12.225C21.4717 11.5404 22.0904 10.9792 22.8161 10.591C23.5418 10.2029 24.352 9.99988 25.175 10H34.825C35.648 9.99988 36.4582 10.2029 37.1839 10.591C37.9096 10.9792 38.5283 11.5404 38.985 12.225L41.015 15.275C41.4717 15.9596 42.0904 16.5208 42.8161 16.909C43.5418 17.2971 44.352 17.5001 45.175 17.5H47.5C48.8261 17.5 50.0979 18.0268 51.0355 18.9645C51.9732 19.9021 52.5 21.1739 52.5 22.5V45C52.5 46.3261 51.9732 47.5979 51.0355 48.5355C50.0979 49.4732 48.8261 50 47.5 50H12.5C11.1739 50 9.90215 49.4732 8.96447 48.5355C8.02678 47.5979 7.5 46.3261 7.5 45V22.5Z" stroke="#234F38" stroke-width="2" stroke-linecap="round" stroke-linejoin="round"/>
<path d="M37.5 32.5C37.5 34.4891 36.7098 36.3968 35.3033 37.8033C33.8968 39.2098 31.9891 40 30 40C28.0109 40 26.1032 39.2098 24.6967 37.8033C23.2902 36.3968 22.5 34.4891 22.5 32.5C22.5 30.5109 23.2902 28.6032 24.6967 27.1967C26.1032 25.7902 28.0109 25 30 25C31.9891 25 33.8968 25.7902 35.3033 27.1967C36.7098 28.6032 37.5 30.5109 37.5 32.5Z" stroke="#234F38" stroke-width="2" stroke-linecap="round" stroke-linejoin="round"/>
</svg>
